<svg width="555" height="192" xmlns="http://www.w3.org/2000/svg" xmlns:xlink="http://www.w3.org/1999/xlink" overflow="hidden"><defs><clipPath id="clip0"><rect x="49" y="57" width="555" height="192"/></clipPath></defs><g clip-path="url(#clip0)" transform="translate(-49 -57)"><rect x="220.5" y="106.5" width="22" height="23" stroke="#000000" stroke-width="1.33333" stroke-miterlimit="8" fill="#D9D9D9"/><rect x="242.5" y="106.5" width="23" height="23" stroke="#000000" stroke-width="1.33333" stroke-miterlimit="8" fill="#D9D9D9"/><rect x="265.5" y="106.5" width="23" height="23" stroke="#000000" stroke-width="1.33333" stroke-miterlimit="8" fill="#D9D9D9"/><rect x="197.5" y="106.5" width="23" height="23" stroke="#000000" stroke-width="1.33333" stroke-miterlimit="8" fill="#D9D9D9"/><text font-family="Times New Roman,Times New Roman_MSFontService,sans-serif" font-weight="400" font-size="19" transform="translate(181.243 82)">Input parameters<tspan x="208.505" y="0">UQ</tspan><tspan x="323.061" y="0">Uncertainty</tspan><tspan font-family="Cambria Math,Cambria Math_MSFontService,sans-serif" x="352.106" y="42">ğœ</tspan><tspan font-family="Cambria Math,Cambria Math_MSFontService,sans-serif" font-size="14" x="361.833" y="45">ğ‘Ÿ</tspan><tspan font-family="Cambria Math,Cambria Math_MSFontService,sans-serif" font-size="14" x="369.433" y="45">,</tspan><tspan font-family="Cambria Math,Cambria Math_MSFontService,sans-serif" font-size="14" x="372.266" y="45">ğ‘‘</tspan><tspan font-family="Cambria Math,Cambria Math_MSFontService,sans-serif" x="353.433" y="94">ğœ</tspan><tspan font-family="Cambria Math,Cambria Math_MSFontService,sans-serif" font-size="14" x="363.16" y="98">ğ‘Ÿ</tspan><tspan font-family="Cambria Math,Cambria Math_MSFontService,sans-serif" font-size="14" x="370.76" y="98">,</tspan><tspan font-family="Cambria Math,Cambria Math_MSFontService,sans-serif" font-size="14" x="373.593" y="98">ğ‘¡</tspan><tspan font-family="Cambria Math,Cambria Math_MSFontService,sans-serif" x="354.765" y="151">ğœ</tspan><tspan font-family="Cambria Math,Cambria Math_MSFontService,sans-serif" font-size="14" x="364.491" y="155">ğ‘Ÿ</tspan><tspan font-family="Cambria Math,Cambria Math_MSFontService,sans-serif" font-size="14" x="372.091" y="155">,</tspan><tspan font-family="Cambria Math,Cambria Math_MSFontService,sans-serif" font-size="14" x="374.925" y="155">ğ‘ </tspan></text><path d="M317.5 178.5 317.5 175 303.5 175 303.5 168 317.5 168 317.5 164.5 324.5 171.5Z" stroke="#000000" stroke-width="1.33333" stroke-miterlimit="8" fill="none" fill-rule="evenodd"/><path d="M495.5 177.5 495.5 174 481.5 174 481.5 167 495.5 167 495.5 163.5 502.5 170.5Z" stroke="#000000" stroke-width="1.33333" stroke-miterlimit="8" fill="none" fill-rule="evenodd"/><rect x="336.5" y="98.5001" width="135" height="145" stroke="#000000" stroke-width="1.33333" stroke-miterlimit="8" fill="#FFFFFF"/><text font-family="Times New Roman,Times New Roman_MSFontService,sans-serif" font-weight="400" font-size="19" transform="translate(337.999 176)">Response surface<tspan x="5.12238" y="-54">Active subspace</tspan><tspan x="21.1667" y="56">MC or PCE</tspan><tspan font-family="Cambria Math,Cambria Math_MSFontService,sans-serif" x="-137.886" y="-53">ğ‘˜</tspan><tspan font-family="Cambria Math,Cambria Math_MSFontService,sans-serif" font-size="14" x="-127.986" y="-49">1</tspan><tspan font-family="Cambria Math,Cambria Math_MSFontService,sans-serif" x="-119.379" y="-53"> </tspan><tspan font-family="Cambria Math,Cambria Math_MSFontService,sans-serif" x="-115.213" y="-53">ğ‘˜</tspan><tspan font-family="Cambria Math,Cambria Math_MSFontService,sans-serif" font-size="14" x="-104.879" y="-49">2</tspan><tspan font-family="Cambria Math,Cambria Math_MSFontService,sans-serif" x="-93.1593" y="-53">â‹¯</tspan><tspan font-family="Cambria Math,Cambria Math_MSFontService,sans-serif" x="-75.606" y="-53"> </tspan><tspan font-family="Cambria Math,Cambria Math_MSFontService,sans-serif" x="-69.8793" y="-53">ğ‘˜</tspan><tspan font-family="Cambria Math,Cambria Math_MSFontService,sans-serif" font-size="14" x="-59.546" y="-49">ğ‘‘</tspan></text><rect x="220.5" y="159.5" width="22" height="22" stroke="#000000" stroke-width="1.33333" stroke-miterlimit="8" fill="none"/><rect x="242.5" y="159.5" width="23" height="22" stroke="#000000" stroke-width="1.33333" stroke-miterlimit="8" fill="#D9D9D9"/><rect x="265.5" y="159.5" width="23" height="22" stroke="#000000" stroke-width="1.33333" stroke-miterlimit="8" fill="#D9D9D9"/><rect x="197.5" y="159.5" width="23" height="22" stroke="#000000" stroke-width="1.33333" stroke-miterlimit="8" fill="#D9D9D9"/><text font-family="Cambria Math,Cambria Math_MSFontService,sans-serif" font-weight="400" font-size="19" transform="translate(200.229 175)">ğ‘˜<tspan font-size="14" x="9.90001" y="4">1</tspan><tspan x="18.5067" y="0"> </tspan><tspan x="22.6733" y="0">ğ‘˜</tspan><tspan font-size="14" x="33.0067" y="4">2</tspan><tspan x="44.7267" y="0">â‹¯</tspan><tspan x="62.28" y="0"> </tspan><tspan x="68.0067" y="0">ğ‘˜</tspan><tspan font-size="14" x="78.34" y="4">ğ‘‘</tspan></text><rect x="220.5" y="215.5" width="22" height="22" stroke="#000000" stroke-width="1.33333" stroke-miterlimit="8" fill="#D9D9D9"/><rect x="242.5" y="215.5" width="23" height="22" stroke="#000000" stroke-width="1.33333" stroke-miterlimit="8" fill="#D9D9D9"/><rect x="197.5" y="215.5" width="23" height="22" stroke="#000000" stroke-width="1.33333" stroke-miterlimit="8" fill="#D9D9D9"/><text font-family="Cambria Math,Cambria Math_MSFontService,sans-serif" font-weight="400" font-size="19" transform="translate(201.017 231)">ğ‘˜<tspan font-size="14" x="9.89999" y="4">1</tspan><tspan x="21.62" y="0">â‹¯</tspan><tspan x="39.1733" y="0"> </tspan><tspan x="44.9" y="0">ğ‘˜</tspan><tspan font-size="14" x="55.2333" y="4">ğ‘ </tspan><tspan font-family="Times New Roman,Times New Roman_MSFontService,sans-serif" x="12.3371" y="-33">fixed</tspan><tspan font-family="Times New Roman,Times New Roman_MSFontService,sans-serif" x="197.109" y="-78">+</tspan><tspan font-family="Times New Roman,Times New Roman_MSFontService,sans-serif" x="197.109" y="-25">+</tspan><tspan font-family="Times New Roman,Times New Roman_MSFontService,sans-serif" x="-140.077" y="-106">Detailed model</tspan><tspan font-family="Times New Roman,Times New Roman_MSFontService,sans-serif" x="-140.077" y="-57">Transition state</tspan><tspan font-family="Times New Roman,Times New Roman_MSFontService,sans-serif" x="-138.906" y="1">Skeletal model</tspan></text></g></svg>